<?xml version="1.0" encoding="UTF-8"?>
<svg width="782px" height="758px" viewBox="0 0 782 758" version="1.1" xmlns="http://www.w3.org/2000/svg" xmlns:xlink="http://www.w3.org/1999/xlink">
    <!-- Generator: Sketch 51.3 (57544) - http://www.bohemiancoding.com/sketch -->
    <title>icon</title>
    <desc>Created with Sketch.</desc>
    <defs></defs>
    <g id="Page-1" stroke="none" stroke-width="1" fill="none" fill-rule="evenodd">
        <g id="icon" transform="translate(-121.000000, -145.000000)" fill-rule="nonzero">
            <polygon id="Shape" points="0 0 1024 0 1024 1024 0 1024"></polygon>
            <path d="M512,353.52381 L507.12381,353.52381 C499.809524,351.085715 497.371429,343.771429 499.809524,338.895238 L560.761905,177.980952 C563.2,170.666666 570.514286,168.228571 575.390476,170.666667 C582.704762,173.104762 585.142857,180.419048 582.704762,185.295238 L521.752381,343.771429 C521.752381,351.085715 516.876191,353.52381 512,353.52381 Z M414.47619,353.52381 C409.6,353.52381 404.723809,351.085715 402.285714,346.209524 L316.952381,163.352381 C314.514286,158.476191 316.952381,151.161905 321.828571,146.285714 C326.704761,143.847619 334.019047,146.285714 338.895238,151.161905 L424.228571,334.019048 C426.666666,338.895238 424.228571,346.209524 419.352381,351.085714 C416.914286,353.523809 416.914286,353.523809 414.47619,353.52381 Z" id="Shape" fill="#242424"></path>
            <path d="M212.114286,316.952381 L811.885714,316.952381 C860.647619,316.952381 902.095238,355.961905 902.095238,407.161905 L902.095238,811.885714 C902.095238,860.647619 863.085714,902.095238 811.885714,902.095238 L212.114286,902.095238 C163.352381,902.095238 121.904762,863.085714 121.904762,811.885714 L121.904762,407.161905 C121.904762,355.961905 160.914286,316.952381 212.114286,316.952381 Z" id="Shape" fill="#F2F5FA"></path>
            <path d="M841.142857,902.095238 L182.857143,902.095238 C148.72381,902.095238 121.904762,875.27619 121.904762,841.142857 L121.904762,377.904762 C121.904762,343.771429 148.72381,316.952381 182.857143,316.952381 L841.142857,316.952381 C875.27619,316.952381 902.095238,343.771429 902.095238,377.904762 L902.095238,841.142857 C902.095238,875.27619 875.27619,902.095238 841.142857,902.095238 Z M182.857143,341.333333 C163.352381,341.333333 146.285714,358.4 146.285714,377.904762 L146.285714,841.142857 C146.285714,860.647619 163.352381,877.714286 182.857143,877.714286 L841.142857,877.714286 C860.647619,877.714286 877.714286,860.647619 877.714286,841.142857 L877.714286,377.904762 C877.714286,358.4 860.647619,341.333333 841.142857,341.333333 L182.857143,341.333333 Z" id="Shape" fill="#333333"></path>
            <path d="M755.809524,463.238095 C755.809524,476.703323 766.725248,487.619047 780.190477,487.619047 C793.655705,487.619047 804.571429,476.703323 804.571429,463.238095 C804.571429,449.772867 793.655705,438.857142 780.190477,438.857142 C766.725248,438.857142 755.809524,449.772867 755.809524,463.238095 Z" id="Shape" fill="#333333"></path>
            <path d="M755.809524,585.142857 C755.809524,598.608085 766.725248,609.52381 780.190477,609.52381 C793.655705,609.52381 804.571429,598.608085 804.571429,585.142857 C804.571429,571.677629 793.655705,560.761905 780.190477,560.761905 C766.725248,560.761905 755.809524,571.677629 755.809524,585.142857 Z" id="Shape" fill="#333333"></path>
            <path d="M270.628571,414.47619 L653.409524,414.47619 C682.666667,414.47619 704.609524,438.857142 704.609524,465.67619 L704.609524,702.171429 C704.609524,731.428572 680.228572,753.371429 653.409524,753.371429 L270.628571,753.371429 C243.809524,755.809524 219.428571,731.428571 219.428571,704.609524 L219.428571,468.114286 C219.428571,438.857143 243.809524,414.47619 270.628571,414.47619 Z" id="Shape" fill="#F2F5FA"></path>
            <path d="M670.47619,755.809524 L256,755.809524 C236.495238,755.809524 219.428571,738.742857 219.428571,719.238095 L219.428571,451.047619 C219.428571,431.542857 236.495238,414.47619 256,414.47619 L670.47619,414.47619 C689.980952,414.47619 707.047619,431.542857 707.047619,451.047619 L707.047619,719.238095 C707.047619,738.742857 689.980952,755.809524 670.47619,755.809524 Z M256,438.857143 C248.685714,438.857143 243.809524,443.733333 243.809524,451.047619 L243.809524,719.238095 C243.809524,726.552381 248.685714,731.428571 256,731.428571 L670.47619,731.428571 C677.790476,731.428571 682.666666,726.552381 682.666667,719.238095 L682.666667,451.047619 C682.666667,443.733333 677.790477,438.857143 670.47619,438.857143 L256,438.857143 Z" id="Shape" fill="#333333"></path>
        </g>
    </g>
</svg>