
	<svg xmlns="http://www.w3.org/2000/svg" xmlns:xlink="http://www.w3.org/1999/xlink" version="1.1" width="128" height="128" viewBox="0 0 100 100">


		<defs>
			<g id="background">
<path fill="url(#background-gradient)" stroke="none" d=" M 85.35 85.35 Q 100 70.6 100 50 100 29.3 85.35 14.65 70.7 0 50 0 29.3 0 14.65 14.65 0 29.3 0 50 0 70.6 14.65 85.35 29.3 100 50 100 70.7 100 85.35 85.35 Z"/>
</g><g id="middle-1">
<path fill="#000000" fill-opacity="0.10196078431372549" stroke="none" d=" M 0 50 Q 0 70.7 14.75 85.4 29.3 100 50 100 61 100 71.15 95.25 L 0.1 47.95 0 50 M 98 63.8 L 99.2 59.1 22.6 8.15 18.6 11.05 98 63.8 Z"/>
</g><mask id="mask">
<path fill="#FFFFFF" stroke="none" d=" M 85.35 85.35 Q 100 70.6 100 50 100 29.3 85.35 14.65 70.7 0 50 0 29.3 0 14.65 14.65 0 29.3 0 50 0 70.6 14.65 85.35 29.3 100 50 100 70.7 100 85.35 85.35 Z"/>
</mask>
			
	<linearGradient id="background-gradient" x1="0" y1="0" y2="1" x2="0" >
		<stop stop-color="#5075C1" offset="0%"/>
		<stop stop-color="#5075C1" offset="100%"/>
	</linearGradient>

			
			
			<g transform="scale(0.09764370204081535) translate(0.06580240384528224 0.0000032527038911212003)" id="picture"><path d="M512 970.105a403.456 403.456 0 0 0 316.901-153.222c15.468 10.509 33.846 17.084 53.68 18.324A457.297 457.297 0 0 1 512 1024a457.459 457.459 0 0 1-370.634-188.847l-6.63.215a107.25 107.25 0 0 0 60.363-18.485A403.402 403.402 0 0 0 512 970.105zm106.765-849.812a458.267 458.267 0 0 1 343.849 528.384 107.143 107.143 0 0 0-50.338-26.408 404.372 404.372 0 0 0-299.924-448.027c4.797-12.234 7.437-25.546 7.437-39.505l-.269-8.084-.755-6.36zm-213.53 0a107.52 107.52 0 0 0 6.467 53.895 404.372 404.372 0 0 0-300.032 448.08 107.197 107.197 0 0 0-50.284 26.301 458.267 458.267 0 0 1 343.849-528.276z M512 269.474A134.737 134.737 0 1 0 512 0a134.737 134.737 0 0 0 0 269.474zm0-53.895a80.842 80.842 0 1 1 0-161.684 80.842 80.842 0 0 1 0 161.684zm377.263 646.737a134.737 134.737 0 1 0 0-269.474 134.737 134.737 0 0 0 0 269.474zm0-53.895a80.842 80.842 0 1 1 0-161.684 80.842 80.842 0 0 1 0 161.684zm-754.526 53.895a134.737 134.737 0 1 0 0-269.474 134.737 134.737 0 0 0 0 269.474zm0-53.895a80.842 80.842 0 1 1 0-161.684 80.842 80.842 0 0 1 0 161.684zM512 754.526a188.632 188.632 0 1 0 0-377.263 188.632 188.632 0 0 0 0 377.263zm0-53.894a134.737 134.737 0 1 1 0-269.474 134.737 134.737 0 0 1 0 269.474z"/></g>
			
	<linearGradient id="picture-gradient" x1="0" y1="0" y2="1" x2="0" >
		<stop stop-color="#ffffff" offset="0%"/>
		<stop stop-color="#e5eff9" offset="100%"/>
	</linearGradient>

		</defs>

		

			<use xlink:href="#background" fill="url(#background-gradient)" />

		<use xlink:href="#middle-1" />

			<g mask="url(#mask)">
				<g transform="
				        translate(
                                50 50
)
                            translate(0 0)  scale(0.6500000000000001)  
                            translate(
                                -50 -50
)">
						<use xlink:href="#picture" fill="url(#picture-gradient)"  />
				</g>
			</g>

		



	</svg>
